{
  "accessors": [
    {
      "bufferView": 0,
      "componentType": 5126,
      "count": 3,
      "max": [
        1,
        0,
        1
      ],
      "min": [
        -1,
        0,
        -1
      ],
      "type": "VEC3"
    }
  ],
  "asset": {
    "generator": "sms-xtask",
    "version": "2.0"
  },
  "bufferViews": [
    {
      "buffer": 0,
      "byteLength": 36,
      "byteOffset": 0,
      "target": 34962
    }
  ],
  "buffers": [
    {
      "byteLength": 68,
      "uri": "data:application/octet-stream;base64,"
    }
  ],
  "meshes": [
    {
      "name": "NamedTriangle",
      "primitives": [
        {
          "attributes": {
            "POSITION": 0
          }
        }
      ]
    }
  ],
  "nodes": [
    {
      "mesh": 0,
      "name": "ASCII_Model"
    },
    {
      "mesh": 0,
      "name": "モデル"
    },
    {
      "mesh": 0,
      "name": "地面"
    }
  ],
  "scene": 0,
  "scenes": [
    {
      "nodes": [
        0,
        1,
        2
      ]
    }
  ]
}
