{
  "accessors": [
    {
      "bufferView": 0,
      "componentType": 5126,
      "count": 3,
      "max": [
        1,
        0,
        1
      ],
      "min": [
        -1,
        0,
        -1
      ],
      "type": "VEC3"
    },
    {
      "bufferView": 1,
      "componentType": 5126,
      "count": 2,
      "max": [
        1
      ],
      "min": [
        0
      ],
      "type": "SCALAR"
    },
    {
      "bufferView": 2,
      "componentType": 5126,
      "count": 2,
      "type": "VEC3"
    }
  ],
  "animations": [
    {
      "channels": [
        {
          "sampler": 0,
          "target": {
            "node": 1,
            "path": "translation"
          }
        }
      ],
      "samplers": [
        {
          "input": 1,
          "output": 2
        }
      ]
    }
  ],
  "asset": {
    "generator": "sms-xtask",
    "version": "2.0"
  },
  "bufferViews": [
    {
      "buffer": 0,
      "byteLength": 36,
      "byteOffset": 0
    },
    {
      "buffer": 0,
      "byteLength": 8,
      "byteOffset": 36
    },
    {
      "buffer": 0,
      "byteLength": 24,
      "byteOffset": 44
    }
  ],
  "buffers": [
    {
      "byteLength": 68,
      "uri": "data:application/octet-stream;base64,"
    }
  ],
  "meshes": [
    {
      "primitives": [
        {
          "attributes": {
            "POSITION": 0
          }
        }
      ]
    }
  ],
  "nodes": [
    {
      "mesh": 0,
      "name": "SkinnedMesh",
      "skin": 0
    },
    {
      "name": "Joint"
    }
  ],
  "scene": 0,
  "scenes": [
    {
      "nodes": [
        0
      ]
    }
  ],
  "skins": [
    {
      "joints": [
        1
      ]
    }
  ]
}
