{
  "accessors": [
    {
      "bufferView": 0,
      "componentType": 5126,
      "count": 5,
      "max": [
        1,
        0,
        2
      ],
      "min": [
        -1,
        0,
        -1
      ],
      "type": "VEC3"
    },
    {
      "bufferView": 1,
      "componentType": 5121,
      "count": 3,
      "type": "SCALAR"
    },
    {
      "bufferView": 2,
      "componentType": 5123,
      "count": 4,
      "type": "SCALAR"
    },
    {
      "bufferView": 3,
      "componentType": 5125,
      "count": 5,
      "type": "SCALAR"
    }
  ],
  "asset": {
    "generator": "sms-xtask",
    "version": "2.0"
  },
  "bufferViews": [
    {
      "buffer": 0,
      "byteLength": 60,
      "byteOffset": 0,
      "target": 34962
    },
    {
      "buffer": 0,
      "byteLength": 3,
      "byteOffset": 60,
      "target": 34963
    },
    {
      "buffer": 0,
      "byteLength": 8,
      "byteOffset": 64,
      "target": 34963
    },
    {
      "buffer": 0,
      "byteLength": 20,
      "byteOffset": 72,
      "target": 34963
    }
  ],
  "buffers": [
    {
      "byteLength": 92,
      "uri": "data:application/octet-stream;base64,"
    }
  ],
  "meshes": [
    {
      "primitives": [
        {
          "attributes": {
            "POSITION": 0
          },
          "indices": 1,
          "mode": 4
        },
        {
          "attributes": {
            "POSITION": 0
          },
          "indices": 2,
          "mode": 5
        },
        {
          "attributes": {
            "POSITION": 0
          },
          "indices": 3,
          "mode": 6
        }
      ]
    }
  ],
  "nodes": [
    {
      "mesh": 0,
      "name": "PrimitiveModes"
    }
  ],
  "scene": 0,
  "scenes": [
    {
      "nodes": [
        0
      ]
    }
  ]
}
